<svg xmlns="http://www.w3.org/2000/svg" width="348.576171875" height="373.965087890625" viewBox="-96.44916534423828 -89.2125244140625 348.576171875 373.965087890625"><title>Neo4j Graph Visualization</title><desc>Created using Neo4j (http://www.neo4j.com/)</desc><g class="layer relationships"><g class="relationship" transform="translate(191.82415471482534 255.7525782200816) rotate(180.81848851828033)"><path class="outline" fill="#A5ABB6" stroke="none" d="M 24.018736134675446,6.953439040707552 L 24.277555179777966,5.987513214418485 A 108.85012871547941 108.85012871547941 0 0 0 27.622698407584373,6.827273963655372 L 27.39461100485363,7.800914624636391 A 109.85012871547941 109.85012871547941 0 0 1 24.018736134675446,6.953439040707552 Z M 74.13380228470336,8.535105370216925 L 73.93640824443182,7.554781141777539 A 108.85012871547941 108.85012871547941 0 0 0 77.306276887663,6.820501455374218 L 76.6212183867375,3.899766128387244 L 84.23550240078686,5.7088208410458705 L 78.21968822223033,10.714815224690183 L 77.53462972130482,7.794079897703209 A 109.85012871547941 109.85012871547941 0 0 1 74.13380228470336,8.535105370216925"/><text text-anchor="middle" pointer-events="none" font-size="8px" fill="#000000" x="50.73255463944407" y="13.183002886702297" transform="rotate(180 50.73255463944407 10.183002886702297)" font-family="sans-serif">DIRECTED</text></g><g class="relationship" transform="translate(191.82415471482534 255.7525782200816) rotate(180.81848851828033)"><path class="outline" fill="#A5ABB6" stroke="none" d="M 24.018736134675446,-6.953439040707552 L 24.277555179777966,-5.987513214418485 A 108.85012871547941 108.85012871547941 0 0 1 33.03977486242932,-7.95188107754656 L 32.861453835896484,-8.935853440723633 A 109.85012871547941 109.85012871547941 0 0 0 24.018736134675446,-6.953439040707552 Z M 68.63400966239067,-9.497777571509758 L 68.4866819505488,-8.508689837623905 A 108.85012871547941 108.85012871547941 0 0 1 77.306276887663,-6.820501455374218 L 76.6212183867375,-3.899766128387244 L 84.23550240078686,-5.7088208410458705 L 78.21968822223033,-10.714815224690183 L 77.53462972130482,-7.794079897703209 A 109.85012871547941 109.85012871547941 0 0 0 68.63400966239067,-9.497777571509758"/><text text-anchor="middle" pointer-events="none" font-size="8px" fill="#000000" x="50.732554639444025" y="-7.1830028867022975" transform="rotate(180 50.732554639444025 -10.183002886702297)" font-family="sans-serif">WROTE</text></g><g class="relationship" transform="translate(120.64595703816218 153.7710886431951) rotate(470.4179974527557)"><path class="outline" fill="#A5ABB6" stroke="none" d="M 24.018736134675446,6.953439040707552 L 24.277555179777966,5.987513214418485 A 106.02953113590263 106.02953113590263 0 0 0 26.930300247146178,6.661739801198536 L 26.696500128742183,7.634024484115159 A 107.02953113590263 107.02953113590263 0 0 1 24.018736134675446,6.953439040707552 Z M 73.42190744798958,8.37709336994655 L 73.21914200525029,7.397866034119602 A 106.02953113590263 106.02953113590263 0 0 0 75.89198452063036,6.8083316663815765 L 75.20806277503833,3.8873299467815414 L 82.82164215729577,5.699347879933528 L 76.80388018141973,10.70300062584829 L 76.1199584358277,7.781998906248255 A 107.02953113590263 107.02953113590263 0 0 1 73.42190744798958,8.37709336994655"/><text text-anchor="middle" pointer-events="none" font-size="8px" fill="#000000" x="50.026104238413595" y="13.086913675014685" transform="rotate(180 50.026104238413595 10.086913675014685)" font-family="sans-serif">DIRECTED</text></g><g class="relationship" transform="translate(120.64595703816218 153.7710886431951) rotate(470.4179974527557)"><path class="outline" fill="#A5ABB6" stroke="none" d="M 24.018736134675446,-6.953439040707552 L 24.277555179777966,-5.987513214418485 A 106.02953113590263 106.02953113590263 0 0 1 32.34076789886798,-7.8143453588610186 L 32.15799571196344,-8.797500650610047 A 107.02953113590263 107.02953113590263 0 0 0 24.018736134675446,-6.953439040707552 Z M 67.9261777063746,-9.366318017170556 L 67.77476005226234,-8.377848142048848 A 106.02953113590263 106.02953113590263 0 0 1 75.89198452063036,-6.8083316663815765 L 75.20806277503833,-3.8873299467815414 L 82.82164215729577,-5.699347879933528 L 76.80388018141973,-10.70300062584829 L 76.1199584358277,-7.781998906248255 A 107.02953113590263 107.02953113590263 0 0 0 67.9261777063746,-9.366318017170556"/><text text-anchor="middle" pointer-events="none" font-size="8px" fill="#000000" x="50.0261042384136" y="-7.086913675014685" transform="rotate(180 50.0261042384136 -10.086913675014685)" font-family="sans-serif">WROTE</text></g><g class="relationship" transform="translate(128.08229076514235 -60.21252176343479) rotate(386.27116029636585)"><path class="outline" fill="#A5ABB6" stroke="none" d="M 21.40063509461097,12.933012701892217 L 21.90063509461097,12.06698729810778 A 58.427088056631945 58.427088056631945 0 0 0 24.622537007676506,13.543719094148848 L 24.169123308715967,14.435019277922486 A 59.427088056631945 59.427088056631945 0 0 1 21.40063509461097,12.933012701892217 Z M 74.7010979991156,16.013369194812604 L 74.30419282257874,15.095509575459921 A 58.427088056631945 58.427088056631945 0 0 0 77.11294947903698,13.791526114449075 L 75.77801539858564,11.104901652256881 L 83.60422890422734,11.124450670427949 L 78.89286158630546,17.373692064038668 L 77.55792750585411,14.687067601846474 A 59.427088056631945 59.427088056631945 0 0 1 74.7010979991156,16.013369194812604"/><text text-anchor="middle" pointer-events="none" font-size="8px" fill="#000000" x="49.2745077277156" y="23.366009061524906" font-family="sans-serif">PRODUCED</text></g><g class="relationship" transform="translate(128.08229076514235 -60.21252176343479) rotate(386.27116029636585)"><path class="outline" fill="#A5ABB6" stroke="none" d="M 25 0.5 L 26.05107054458115 0.5 L 26.05107054458115 -0.5 L 25 -0.5 Z M 72.94169554458115 0.5 L 73.9927660891623 0.5 L 73.9927660891623 3.5 L 80.9927660891623 0 L 73.9927660891623 -3.5 L 73.9927660891623 -0.5 L 72.94169554458115 -0.5 Z"/><text text-anchor="middle" pointer-events="none" font-size="8px" fill="#000000" x="49.49638304458115" y="3" font-family="sans-serif">DIRECTED</text></g><g class="relationship" transform="translate(128.08229076514235 -60.21252176343479) rotate(386.27116029636585)"><path class="outline" fill="#A5ABB6" stroke="none" d="M 21.40063509461097,-12.933012701892217 L 21.90063509461097,-12.06698729810778 A 58.427088056631945 58.427088056631945 0 0 1 31.918156646677566,-16.65131391296304 L 31.589610023617333,-17.59580166644411 A 59.427088056631945 59.427088056631945 0 0 0 21.40063509461097,-12.933012701892217 Z M 67.09781651336782,-18.704889033509993 L 66.82885436305668,-17.74173828637847 A 58.427088056631945 58.427088056631945 0 0 1 77.11294947903698,-13.791526114449075 L 75.77801539858564,-11.104901652256881 L 83.60422890422734,-11.124450670427949 L 78.89286158630546,-17.373692064038668 L 77.55792750585411,-14.687067601846474 A 59.427088056631945 59.427088056631945 0 0 0 67.09781651336782,-18.704889033509993"/><text text-anchor="middle" pointer-events="none" font-size="8px" fill="#000000" x="49.274507727715594" y="-17.366009061524906" font-family="sans-serif">WROTE</text></g><g class="relationship" transform="translate(-67.4491617423457 121.79683966634144) rotate(284.0454224193436)"><path class="outline" fill="#A5ABB6" stroke="none" d="M 21.40063509461097,12.933012701892217 L 21.90063509461097,12.06698729810778 A 57.77697124975461 57.77697124975461 0 0 0 31.612437924546057,16.532343551739416 L 31.28052916608853,17.47565504645322 A 58.77697124975461 58.77697124975461 0 0 1 21.40063509461097,12.933012701892217 Z M 66.779563859669,18.59070202372338 L 66.50751099950656,17.628419715210207 A 57.77697124975461 57.77697124975461 0 0 0 76.48041164788997,13.781372362128128 L 75.14642215141679,11.094278760613797 L 82.9726283008356,11.116579137276446 L 78.2590643098542,17.3641638308139 L 76.92507481338102,14.67707022929957 A 58.77697124975461 58.77697124975461 0 0 1 66.779563859669,18.59070202372338"/><text text-anchor="middle" pointer-events="none" font-size="8px" fill="#000000" x="48.9595067990226" y="23.278906114733005" font-family="sans-serif">WROTE</text></g><g class="relationship" transform="translate(-67.4491617423457 121.79683966634144) rotate(284.0454224193436)"><path class="outline" fill="#A5ABB6" stroke="none" d="M 25 0.5 L 25.737224990060838 0.5 L 25.737224990060838 -0.5 L 25 -0.5 Z M 72.62784999006084 0.5 L 73.36507498012168 0.5 L 73.36507498012168 3.5 L 80.36507498012168 0 L 73.36507498012168 -3.5 L 73.36507498012168 -0.5 L 72.62784999006084 -0.5 Z"/><text text-anchor="middle" pointer-events="none" font-size="8px" fill="#000000" x="49.18253749006084" y="3" font-family="sans-serif">DIRECTED</text></g><g class="relationship" transform="translate(-67.4491617423457 121.79683966634144) rotate(284.0454224193436)"><path class="outline" fill="#A5ABB6" stroke="none" d="M 21.40063509461097,-12.933012701892217 L 21.90063509461097,-12.06698729810778 A 57.77697124975461 57.77697124975461 0 0 1 24.331130624683105,-13.393617642690522 L 23.8731974806899,-14.282604276804044 A 58.77697124975461 58.77697124975461 0 0 0 21.40063509461097,-12.933012701892217 Z M 74.37268714336993,-15.868824966693403 L 73.97144893863715,-14.952851220856317 A 57.77697124975461 57.77697124975461 0 0 1 76.48041164788997,-13.781372362128128 L 75.14642215141679,-11.094278760613797 L 82.9726283008356,-11.116579137276446 L 78.2590643098542,-17.3641638308139 L 76.92507481338102,-14.67707022929957 A 58.77697124975461 58.77697124975461 0 0 0 74.37268714336993,-15.868824966693403"/><text text-anchor="middle" pointer-events="none" font-size="8px" fill="#000000" x="48.95950679902259" y="-17.278906114733005" font-family="sans-serif">PRODUCED</text></g></g><g class="layer nodes"><g class="node" transform="translate(83.26026953304029,254.20160292630538)"><circle class="outline" cx="0" cy="0" r="25" fill="#F79767" stroke="#f36924" stroke-width="2px"/><text text-anchor="middle" pointer-events="none" font-family="sans-serif" dy="1.5625" font-size="25" fill="#FFFFFF"/><text text-anchor="middle" pointer-events="none" font-family="sans-serif" dy="1.5625" font-size="25" fill="#FFFFFF"/><text text-anchor="middle" pointer-events="none" x="0" y="0" font-size="10px" fill="#FFFFFF" font-family="sans-serif"> Speed</text><text text-anchor="middle" pointer-events="none" x="0" y="10" font-size="10px" fill="#FFFFFF" font-family="sans-serif"> Racer</text></g><g class="node" transform="translate(191.82415471482534,255.7525782200816)"><circle class="outline" cx="0" cy="0" r="25" fill="#57C7E3" stroke="#23b3d7" stroke-width="2px"/><text text-anchor="middle" pointer-events="none" font-family="sans-serif" dy="1.5625" font-size="25" fill="#2A2C34"/><text text-anchor="middle" pointer-events="none" font-family="sans-serif" dy="1.5625" font-size="25" fill="#2A2C34"/><text text-anchor="middle" pointer-events="none" x="0" y="0" font-size="10px" fill="#2A2C34" font-family="sans-serif"> Lilly</text><text text-anchor="middle" pointer-events="none" x="0" y="10" font-size="10px" fill="#2A2C34" font-family="sans-serif"> Wacho…</text></g><g class="node" transform="translate(120.64595703816218,153.7710886431951)"><circle class="outline" cx="0" cy="0" r="25" fill="#57C7E3" stroke="#23b3d7" stroke-width="2px"/><text text-anchor="middle" pointer-events="none" font-family="sans-serif" dy="1.5625" font-size="25" fill="#2A2C34"/><text text-anchor="middle" pointer-events="none" font-family="sans-serif" dy="1.5625" font-size="25" fill="#2A2C34"/><text text-anchor="middle" pointer-events="none" x="0" y="0" font-size="10px" fill="#2A2C34" font-family="sans-serif"> Lana</text><text text-anchor="middle" pointer-events="none" x="0" y="10" font-size="10px" fill="#2A2C34" font-family="sans-serif"> Wacho…</text></g><g class="node" transform="translate(223.12699363496813,-13.298015268978261)"><circle class="outline" cx="0" cy="0" r="25" fill="#F79767" stroke="#f36924" stroke-width="2px"/><text text-anchor="middle" pointer-events="none" font-family="sans-serif" dy="1.5625" font-size="25" fill="#FFFFFF"/><text text-anchor="middle" pointer-events="none" font-family="sans-serif" dy="1.5625" font-size="25" fill="#FFFFFF"/><text text-anchor="middle" pointer-events="none" x="0" y="0" font-size="10px" fill="#FFFFFF" font-family="sans-serif"> Jerry</text><text text-anchor="middle" pointer-events="none" x="0" y="10" font-size="10px" fill="#FFFFFF" font-family="sans-serif"> Maguire</text></g><g class="node" transform="translate(128.08229076514235,-60.21252176343479)"><circle class="outline" cx="0" cy="0" r="25" fill="#57C7E3" stroke="#23b3d7" stroke-width="2px"/><text text-anchor="middle" pointer-events="none" font-family="sans-serif" dy="1.5625" font-size="25" fill="#2A2C34"/><text text-anchor="middle" pointer-events="none" font-family="sans-serif" dy="1.5625" font-size="25" fill="#2A2C34"/><text text-anchor="middle" pointer-events="none" x="0" y="0" font-size="10px" fill="#2A2C34" font-family="sans-serif"> Cameron</text><text text-anchor="middle" pointer-events="none" x="0" y="10" font-size="10px" fill="#2A2C34" font-family="sans-serif"> Crowe</text></g><g class="node" transform="translate(-41.878001948352924,19.581797660006835)"><circle class="outline" cx="0" cy="0" r="25" fill="#F79767" stroke="#f36924" stroke-width="2px"/><text text-anchor="middle" pointer-events="none" font-family="sans-serif" dy="1.5625" font-size="25" fill="#FFFFFF"/><text text-anchor="middle" pointer-events="none" x="0" y="5" font-size="10px" fill="#FFFFFF" font-family="sans-serif"> Somethi…</text></g><g class="node" transform="translate(-67.4491617423457,121.79683966634144)"><circle class="outline" cx="0" cy="0" r="25" fill="#57C7E3" stroke="#23b3d7" stroke-width="2px"/><text text-anchor="middle" pointer-events="none" font-family="sans-serif" dy="1.5625" font-size="25" fill="#2A2C34"/><text text-anchor="middle" pointer-events="none" font-family="sans-serif" dy="1.5625" font-size="25" fill="#2A2C34"/><text text-anchor="middle" pointer-events="none" x="0" y="0" font-size="10px" fill="#2A2C34" font-family="sans-serif"> Nancy</text><text text-anchor="middle" pointer-events="none" x="0" y="10" font-size="10px" fill="#2A2C34" font-family="sans-serif"> Meyers</text></g></g></svg>